<?xml version="1.0" encoding="UTF-8"?>
<!DOCTYPE svg PUBLIC "-//W3C//DTD SVG 1.1//EN" "http://www.w3.org/Graphics/SVG/1.1/DTD/svg11.dtd">
<!-- Creator: CorelDRAW -->
<svg xmlns="http://www.w3.org/2000/svg" xml:space="preserve" width="180mm" height="50mm" version="1.1" style="shape-rendering:geometricPrecision; text-rendering:geometricPrecision; image-rendering:optimizeQuality; fill-rule:evenodd; clip-rule:evenodd"
viewBox="0 0 18000 5000"
 xmlns:xlink="http://www.w3.org/1999/xlink"
 xmlns:xodm="http://www.corel.com/coreldraw/odm/2003">
 <defs>
  <style type="text/css">
   <![CDATA[
    .fil2 {fill:#E52D33;fill-rule:nonzero}
    .fil0 {fill:#1D1D1B;fill-rule:nonzero}
    .fil1 {fill:#9D9D9C;fill-rule:nonzero}
   ]]>
  </style>
 </defs>
 <g id="Слой_x0020_1">
  <metadata id="CorelCorpID_0Corel-Layer"/>
  <path class="fil0" d="M7228.5 1664.96l-186.96 -423.15 -186.21 423.15 373.17 0zm400.58 455.36l-201.5 0 -131.37 -302.21 -508.59 0 -132.19 302.21 -201.49 0 587.6 -1259.73 587.54 1259.73z"/>
  <path class="fil0" d="M8651.1 2120.34l-192.59 0 0 -1044.55 -397.39 0 0 640.72c0,154.22 -20.52,263.29 -61.62,327.29 -41.15,63.93 -112.19,95.86 -213.17,95.86 -38.7,0 -76.94,-6.51 -114.52,-19.32l0 -170.88c32.28,16.66 64.8,24.96 97.6,24.96 39.23,0 66.05,-15.6 80.6,-46.73 17.12,-37.11 25.74,-108.55 25.74,-214.44l0 -801.04 775.35 0 0 1208.13z"/>
  <path class="fil0" d="M9504.89 1741.52c0,-137.55 -83.86,-206.33 -251.5,-206.33l-137.01 0 0 421.5 137.01 0c91.95,0 157.74,-18.25 197.53,-54.84 35.98,-33.25 53.97,-86.77 53.97,-160.33zm200.68 0c0,111.8 -34.38,200.62 -103.16,266.83 -77.35,74.61 -191.54,111.99 -342.5,111.99l-335.33 0 0 -1208.14 191.8 0 0 459.42 143.53 0c297.09,0 445.66,123.28 445.66,369.9z"/>
  <path class="fil0" d="M10938.78 1479.54c0,-89.76 -24.16,-163.04 -72.57,-219.95 -55.3,-65.66 -136.22,-98.39 -242.57,-98.39l-41.1 0 0 627.04 42.68 0c209.06,0 313.56,-102.84 313.56,-308.7zm-544.84 308.7l0 -627.04 -41.1 0c-106.36,0 -187.23,32.73 -242.59,98.39 -48.33,56.91 -72.49,130.19 -72.49,219.95 0,205.86 104.42,308.7 313.48,308.7l42.7 0zm738.3 -308.7c0,140.28 -42.69,252.34 -128.2,336.05 -90.21,88.69 -217.03,133.05 -380.4,133.05l-41.1 0 0 171.68 -188.6 0 0 -171.68 -41.1 0c-163.85,0 -290.92,-44.36 -381.21,-133.05 -84.91,-83.18 -127.33,-195.25 -127.33,-336.05 0,-134.83 41.63,-246.3 124.94,-334.46 90.76,-96.13 214.91,-144.27 372.31,-144.27l52.39 0 0 -128.19 188.6 0 0 128.19 50.79 0c157.48,0 281.89,48.14 373.23,144.27 83.71,88.16 125.68,199.63 125.68,334.46z"/>
  <path class="fil0" d="M11891.1 1664.96l-186.95 -423.15 -186.22 423.15 373.17 0zm400.59 455.36l-201.49 0 -131.32 -302.21 -508.66 0 -132.19 302.21 -201.41 0 587.53 -1259.73 587.54 1259.73z"/>
  <polygon class="fil0" points="7549.29,3794.9 7309.08,3794.9 6815.83,3182.33 6815.83,3794.9 6624.84,3794.9 6624.84,2586.76 6815.83,2586.76 6815.83,3115.47 7299.39,2586.76 7527.51,2586.76 6994.02,3150.93 "/>
  <path class="fil0" d="M8586.8 3190.86c0,-137.96 -41.1,-249.95 -123.28,-335.86 -82.26,-85.85 -187.83,-128.79 -316.76,-128.79 -128.46,0 -233.67,42.94 -316,128.79 -82.18,85.91 -123.28,197.9 -123.28,335.86 0,136.36 41.28,247.82 123.75,334.6 82.44,86.69 187.6,130.05 315.53,130.05 128.4,0 233.9,-43.36 316.34,-130.05 82.47,-86.78 123.7,-198.24 123.7,-334.6zm204.73 -0.47c0,184.89 -61.94,337.91 -185.74,459.01 -123.89,121.15 -276.92,181.84 -459.03,181.84 -181.64,0 -334.18,-60.69 -457.75,-181.84 -123.67,-121.1 -185.42,-274.12 -185.42,-459.01 0,-184.82 62.01,-338.25 186.16,-460.14 122.56,-119.84 274.85,-179.77 457.01,-179.77 182.11,0 334.75,59.93 457.82,179.77 124.62,121.89 186.95,275.32 186.95,460.14z"/>
  <polygon class="fil0" points="9946.92,3794.9 9755.04,3794.9 9755.04,3225.09 9172.36,3225.09 9172.36,3794.9 8979.7,3794.9 8979.7,2586.76 9172.36,2586.76 9172.36,3059.05 9755.04,3059.05 9755.04,2586.76 9946.92,2586.76 "/>
  <path class="fil0" d="M11140.53 3734.47c-103.69,63.93 -228.83,95.87 -375.56,95.87 -185.95,0 -338.25,-62.01 -457.01,-186.16 -115.51,-120.89 -173.27,-272.13 -173.27,-453.77 0,-175.73 59.08,-325.3 177.31,-448.9 121.97,-127.35 273.98,-191.01 456.23,-191.01 146.12,0 270.19,31.93 372.3,95.86l0 213.65c-111.8,-89.24 -235.87,-133.84 -372.3,-133.84 -116.64,0 -218.09,45.67 -304.27,136.89 -86.22,91.29 -129.45,200.55 -129.45,327.82 0,132.58 40.1,242.65 120.16,330.08 81.6,89.16 185.63,133.7 311.9,133.7 129.45,0 254.13,-44.88 373.96,-134.57l0 214.38z"/>
  <path class="fil0" d="M12010.66 3339.51l-187.03 -423.08 -186.15 423.08 373.18 0zm400.51 455.35l-201.49 0 -131.32 -302.19 -508.59 0 -132.18 302.19 -201.49 0 587.53 -1259.64 587.54 1259.64z"/>
  <path class="fil0" d="M13450.38 3794.9l-192.59 0 0 -1044.49 -397.39 0 0 640.72c0,154.22 -20.54,263.29 -61.62,327.22 -41.15,64 -112.19,95.93 -213.18,95.93 -38.71,0 -76.87,-6.51 -114.45,-19.38l0 -170.82c32.2,16.66 64.74,24.96 97.52,24.96 39.23,0 66.07,-15.6 80.6,-46.75 17.12,-37.11 25.76,-108.53 25.76,-214.42l0 -801.11 775.35 0 0 1208.14z"/>
  <polygon class="fil0" points="14482.64,2756.01 14168.35,2756.01 14168.35,3794.86 13975.69,3794.86 13975.69,2756.01 13661.34,2756.01 13661.34,2586.74 14482.64,2586.74 "/>
  <polygon class="fil0" points="15636.66,3795.73 15444.79,3795.73 15444.79,2965.54 14658.22,3846.52 14658.22,2585.14 14850.02,2585.14 14850.02,3414.54 15636.66,2535.22 "/>
  <polygon class="fil0" points="16856.47,3794.9 16664.67,3794.9 16664.67,3225.09 16081.91,3225.09 16081.91,3794.9 15889.32,3794.9 15889.32,2586.76 16081.91,2586.76 16081.91,3059.05 16664.67,3059.05 16664.67,2586.76 16856.47,2586.76 "/>
  <polygon class="fil0" points="17738.77,2756.01 17337.38,2756.01 17337.38,3794.86 17145.58,3794.86 17145.58,2586.74 17738.77,2586.74 "/>
  <path class="fil1" d="M6577.64 4280.56l0 149.3 38.44 0c27.69,0 49.33,-6.64 64.93,-19.85 15.47,-13.21 23.5,-32.01 23.9,-56.36 -0.4,-23.98 -8.49,-41.97 -24.24,-54.24 -15.79,-12.15 -38.56,-18.46 -68.44,-18.85l-34.59 0zm-46.6 -44.15l76.22 0c25.61,0.45 46.59,2.97 63.06,7.56 16.33,4.71 30.54,12.01 42.76,22.04 12.6,11.35 22.16,24.82 28.68,40.37 6.51,15.52 9.76,32.12 9.76,49.79 0,36.9 -12.02,65.79 -36.19,86.57 -24.16,20.85 -56.36,31.2 -96.72,31.2l-40.97 0 0 182.76 -46.6 0 0 -420.29z"/>
  <path class="fil1" d="M6987.58 4494.11l141.94 0 -70.37 -168.43 -71.57 168.43zm209.78 162.58l-49.46 -118.51 -179.04 0 -50.26 118.51 -51.64 0 193.45 -440.48 188.4 440.48 -51.45 0z"/>
  <path class="fil1" d="M7476.87 4318.8l-35.27 -28.29c13.63,-20.51 30.23,-35.85 49.67,-45.86 19.46,-10.16 42.36,-15.21 68.91,-15.21 18.59,0.47 35.12,3.18 49.66,8.23 14.48,5.04 27.08,12.21 37.85,21.45 10.74,10.09 18.72,21.83 23.9,35.25 5.17,13.47 7.96,27.55 8.43,42.28 0,20.52 -5.31,38.51 -15.87,53.84 -10.55,15.34 -24.37,26.97 -41.3,34.93 26.49,6.31 46.93,19.39 61.48,39.3 14.47,19.92 21.72,42.88 21.72,68.78 0,21.85 -4.46,41.36 -13.35,58.83 -8.9,17.38 -21.66,31.93 -38.18,43.62 -12.87,9.27 -27.55,16.18 -44.07,20.77 -16.55,4.58 -33.28,6.91 -50.27,6.91 -34.38,0 -64.58,-8.77 -90.61,-26.42 -26.16,-17.67 -45.81,-42.36 -59.03,-74.24l44.56 -20.18c7.83,23.9 21.38,42.69 40.55,56.31 19.2,13.66 41.16,20.44 65.92,20.44 11.56,0.39 22.77,-0.92 33.73,-4.12 10.95,-3.11 20.77,-7.57 29.41,-13.48 11.22,-7.56 19.46,-16.92 24.82,-28.28 5.33,-11.27 8.25,-24.22 8.58,-38.9 0,-27.16 -9.03,-47.73 -27.15,-61.48 -18.12,-13.8 -45.67,-20.7 -82.78,-20.7l-37.06 0 0 -44.09 37.06 0c27.08,0.33 47.79,-6.23 62,-19.84 14.19,-13.68 21.51,-30.81 21.91,-51.45 0,-8.77 -1.6,-17.01 -4.59,-24.5 -3.13,-7.57 -7.17,-14.15 -12.09,-19.59 -6.22,-5.91 -13.87,-10.62 -22.95,-14.13 -9.11,-3.6 -19.99,-5.39 -32.75,-5.39 -18.12,0 -33.91,3.79 -47.33,11.35 -13.42,7.51 -25.22,18.8 -35.51,33.86z"/>
  <path class="fil1" d="M7971.8 4462.61l0 149.96 53.58 0c17.58,0 32.12,-1.26 43.47,-3.78 11.37,-2.52 21.38,-7.11 30.21,-13.89 8.43,-6.3 15.2,-14.34 20.19,-24.22 5.04,-9.89 7.56,-21.11 7.56,-33.72 -0.47,-13.42 -3.78,-25.5 -10.08,-36.26 -6.31,-10.69 -14.95,-19.18 -25.82,-25.56 -8.04,-4.1 -17.81,-7.3 -29.29,-9.35 -11.55,-2.07 -25.55,-3.18 -41.89,-3.18l-47.93 0zm0 -182.05l0 140.48 35.25 0c26.08,0 46.33,-5.78 60.8,-17.33 14.48,-11.62 21.72,-29.08 21.72,-52.64 0,-21.38 -6.83,-38.5 -20.72,-51.32 -13.87,-12.81 -34.04,-19.19 -60.48,-19.19l-36.57 0zm-46.61 -44.15l75.61 0c21.46,0 39.97,2.26 55.71,6.64 15.8,4.39 29.33,10.95 40.7,19.85 12.14,10.09 21.51,22.57 28,37.51 6.51,14.87 9.77,31.33 9.77,49.46 -0.47,18.46 -4.12,34.58 -11.03,48.47 -6.9,13.87 -17.12,25.16 -30.52,34.05 24.29,6.32 43.73,18.98 58.28,38.1 14.47,19.12 21.72,41.71 21.72,67.73 0,17.26 -3.86,33.99 -11.37,50.38 -7.49,16.47 -18.05,29.94 -31.46,40.37 -12.61,9.63 -26.63,16.73 -41.9,21.11 -15.39,4.38 -35.05,6.64 -58.95,6.64l-104.56 0 0 -420.31z"/>
  <polygon class="fil1" points="8680.16,4656.7 8680.16,4335.79 8387.85,4675.56 8387.85,4236.41 8434.44,4236.41 8434.44,4558.58 8726.83,4218.74 8726.83,4656.7 "/>
  <path class="fil1" d="M9012.8 4462.61l0 149.96 53.57 0c17.6,0 32.07,-1.26 43.42,-3.78 11.37,-2.52 21.45,-7.11 30.28,-13.89 8.43,-6.3 15.13,-14.34 20.19,-24.22 5.04,-9.89 7.57,-21.11 7.57,-33.72 -0.47,-13.42 -3.86,-25.5 -10.11,-36.26 -6.3,-10.69 -14.92,-19.18 -25.82,-25.56 -8.03,-4.1 -17.78,-7.3 -29.28,-9.35 -11.54,-2.07 -25.56,-3.18 -41.95,-3.18l-47.87 0zm0 -182.05l0 140.48 35.26 0c26.09,0 46.34,-5.78 60.81,-17.33 14.47,-11.62 21.71,-29.08 21.71,-52.64 0,-21.38 -6.9,-38.5 -20.79,-51.32 -13.8,-12.81 -33.99,-19.19 -60.47,-19.19l-36.52 0zm-46.6 -44.15l75.62 0c21.37,0 39.97,2.26 55.7,6.64 15.79,4.39 29.34,10.95 40.69,19.85 12.15,10.09 21.51,22.57 28.02,37.51 6.51,14.87 9.76,31.33 9.76,49.46 -0.47,18.46 -4.12,34.58 -11.02,48.47 -6.91,13.87 -17.13,25.16 -30.55,34.05 24.3,6.32 43.76,18.98 58.3,38.1 14.47,19.12 21.7,41.71 21.7,67.73 0,17.26 -3.84,33.99 -11.35,50.38 -7.56,16.47 -18.06,29.94 -31.46,40.37 -12.69,9.63 -26.63,16.73 -41.89,21.11 -15.41,4.38 -35.06,6.64 -58.96,6.64l-104.56 0 0 -420.31z"/>
  <path class="fil1" d="M9496.51 4494.11l141.88 0 -70.37 -168.43 -71.51 168.43zm209.74 162.58l-49.48 -118.51 -179.04 0 -50.24 118.51 -51.66 0 193.46 -440.48 188.41 440.48 -51.45 0z"/>
  <path class="fil1" d="M10019.58 4141.3l44.09 -14.47c2.92,10.87 9.17,19.51 18.59,25.82 9.49,6.3 21.18,9.35 34.99,9.35 13.47,0 24.9,-3.05 34.32,-9.35 9.49,-6.31 15.92,-14.95 19.18,-25.82l44.15 14.47c-8.04,20.17 -20.7,35.38 -38.11,45.67 -17.46,10.35 -37.24,15.39 -59.54,15.39 -22.64,0 -42.76,-5.04 -60.22,-15.39 -17.39,-10.29 -29.94,-25.5 -37.45,-45.67zm220.48 515.42l0 -320.91 -292.31 339.77 0 -439.15 46.61 0 0 322.17 292.37 -339.83 0 437.95 -46.67 0z"/>
  <polygon class="fil1" points="10729.5,4280.56 10627.39,4280.56 10627.39,4656.7 10580.79,4656.7 10580.79,4280.56 10478.76,4280.56 10478.76,4236.41 10729.5,4236.41 "/>
  <polygon class="fil1" points="11139.82,4236.41 11139.82,4280.56 10968.4,4280.56 10968.4,4405.29 11134.78,4405.29 11134.78,4449.38 10968.4,4449.38 10968.4,4612.56 11139.82,4612.56 11139.82,4656.7 10921.8,4656.7 10921.8,4236.41 "/>
  <path class="fil1" d="M11670.92 4455.08l0 157.48 54.18 0c18.52,0.45 33.86,-1.21 46.07,-5.05 12.08,-3.8 22.64,-9.84 31.41,-18.27 7.17,-6.7 12.55,-15.06 16.12,-25.16 3.52,-10.14 5.59,-21.7 5.99,-34.65 0,-15.54 -3.07,-28.62 -9.11,-39.1 -6.1,-10.48 -14.4,-18.65 -24.88,-24.56 -7.64,-3.78 -16.2,-6.51 -25.89,-8.24 -9.64,-1.58 -24.58,-2.45 -44.75,-2.45l-49.14 0zm-46.59 201.62l0 -420.31 208.53 0 0 44.15 -161.94 0 0 130.45 56.7 0c47.93,0 84.05,10.03 108.34,30.2 24.45,20.2 36.58,49.53 36.58,88.24 -0.39,39.9 -12.87,71.04 -37.43,93.55 -24.57,22.43 -57.49,33.72 -98.66,33.72l-112.12 0z"/>
  <polygon class="fil1" points="12375,4656.7 12375,4335.79 12082.69,4675.56 12082.69,4236.41 12129.31,4236.41 12129.31,4558.58 12421.67,4218.74 12421.67,4656.7 "/>
  <path class="fil1" d="M12691.25 4318.8l-35.24 -28.29c13.68,-20.51 30.2,-35.85 49.66,-45.86 19.44,-10.16 42.34,-15.21 68.91,-15.21 18.58,0.47 35.12,3.18 49.65,8.23 14.47,5.04 27.09,12.21 37.84,21.45 10.76,10.09 18.72,21.83 23.98,35.25 5.09,13.47 7.88,27.55 8.35,42.28 0,20.52 -5.31,38.51 -15.86,53.84 -10.56,15.34 -24.3,26.97 -41.29,34.93 26.48,6.31 46.99,19.39 61.46,39.3 14.49,19.92 21.72,42.88 21.72,68.78 0,21.85 -4.39,41.36 -13.35,58.83 -8.9,17.38 -21.58,31.93 -38.18,43.62 -12.87,9.27 -27.47,16.18 -44.07,20.77 -16.53,4.58 -33.25,6.91 -50.25,6.91 -34.4,0 -64.6,-8.77 -90.63,-26.42 -26.08,-17.67 -45.8,-42.36 -59.01,-74.24l44.54 -20.18c7.83,23.9 21.38,42.69 40.57,56.31 19.18,13.66 41.16,20.44 65.92,20.44 11.54,0.39 22.83,-0.92 33.73,-4.12 10.95,-3.11 20.77,-7.57 29.47,-13.48 11.16,-7.56 19.38,-16.92 24.76,-28.28 5.31,-11.27 8.23,-24.22 8.57,-38.9 0,-27.16 -9.04,-47.73 -27.16,-61.48 -18.05,-13.8 -45.67,-20.7 -82.78,-20.7l-37.06 0 0 -44.09 37.06 0c27.15,0.33 47.8,-6.23 62,-19.84 14.21,-13.68 21.51,-30.81 21.91,-51.45 0,-8.77 -1.53,-17.01 -4.57,-24.5 -3.13,-7.57 -7.17,-14.15 -12.09,-19.59 -6.24,-5.91 -13.81,-10.62 -22.9,-14.13 -9.11,-3.6 -20.06,-5.39 -32.8,-5.39 -18.12,0 -33.93,3.79 -47.33,11.35 -13.42,7.51 -25.23,18.8 -35.53,33.86z"/>
  <polygon class="fil1" points="13186.18,4236.41 13186.18,4407.15 13401.68,4407.15 13401.68,4236.41 13448.29,4236.41 13448.29,4656.7 13401.68,4656.7 13401.68,4451.24 13186.18,4451.24 13186.18,4656.7 13139.59,4656.7 13139.59,4236.41 "/>
  <polygon class="fil1" points="13906.02,4236.41 13906.02,4280.56 13734.6,4280.56 13734.6,4405.29 13900.98,4405.29 13900.98,4449.38 13734.6,4449.38 13734.6,4612.56 13906.02,4612.56 13906.02,4656.7 13688,4656.7 13688,4236.41 "/>
  <path class="fil1" d="M14434.15 4271.01l0 57.91c-8.7,-7.98 -17.65,-15.28 -26.89,-21.98 -9.3,-6.77 -18.26,-12.42 -26.95,-16.99 -11.16,-4.99 -22.85,-9.04 -35.19,-12.03 -12.35,-2.84 -24.3,-4.31 -35.85,-4.31 -47.41,0.4 -86.91,17.52 -118.64,51.32 -31.73,33.67 -47.4,74.82 -47.01,123.55 0,48.13 15.74,88.76 47.28,121.7 31.54,32.91 71.17,49.38 118.97,49.38 13.21,0.39 26.21,-1.26 39.29,-4.71 12.95,-3.59 25.43,-8.5 37.32,-14.87 8.3,-4.12 16.39,-9.16 24.43,-15.01 8.03,-5.84 15.8,-12.54 23.24,-20.12l0 57.91c-19.07,13.79 -39.32,24.08 -60.75,30.86 -21.51,6.64 -42.81,10.03 -63.87,10.03 -61.14,0 -111.99,-20.65 -152.75,-62.01 -40.71,-41.31 -61.01,-92.55 -61.01,-153.82 0,-62.01 20.51,-113.99 61.61,-155.75 41.08,-41.7 92.74,-62.61 154.61,-62.61 22.78,0 44.21,3.65 64.46,10.77 20.32,7.09 39.5,17.39 57.7,30.78z"/>
  <path class="fil1" d="M15240 4271.01l0 57.91c-8.69,-7.98 -17.65,-15.28 -26.89,-21.98 -9.28,-6.77 -18.25,-12.42 -26.95,-16.99 -11.16,-4.99 -22.83,-9.04 -35.19,-12.03 -12.34,-2.84 -24.29,-4.31 -35.85,-4.31 -47.38,0.4 -86.89,17.52 -118.63,51.32 -31.73,33.67 -47.41,74.82 -46.99,123.55 0,48.13 15.73,88.76 47.25,121.7 31.54,32.91 71.17,49.38 118.97,49.38 13.21,0.39 26.24,-1.26 39.32,-4.71 12.94,-3.59 25.42,-8.5 37.29,-14.87 8.3,-4.12 16.41,-9.16 24.43,-15.01 8.04,-5.84 15.81,-12.54 23.24,-20.12l0 57.91c-19.04,13.79 -39.29,24.08 -60.74,30.86 -21.51,6.64 -42.82,10.03 -63.86,10.03 -61.16,0 -112.01,-20.65 -152.77,-62.01 -40.68,-41.31 -61.01,-92.55 -61.01,-153.82 0,-62.01 20.52,-113.99 61.62,-155.75 41.1,-41.7 92.73,-62.61 154.68,-62.61 22.7,0 44.15,3.65 64.4,10.77 20.31,7.09 39.5,17.39 57.68,30.78z"/>
  <polygon class="fil1" points="15776.82,4236.41 15776.82,4407.15 15992.24,4407.15 15992.24,4236.41 16038.86,4236.41 16038.86,4656.7 15992.24,4656.7 15992.24,4451.24 15776.82,4451.24 15776.82,4656.7 15730.15,4656.7 15730.15,4236.41 "/>
  <path class="fil1" d="M16349.93 4494.11l141.95 0 -70.38 -168.43 -71.57 168.43zm209.79 162.58l-49.46 -118.51 -179.04 0 -50.32 118.51 -51.6 0 193.46 -440.48 188.41 440.48 -51.45 0z"/>
  <polygon class="fil1" points="16841.81,4656.7 16793.96,4656.7 16863.92,4213.09 17025.26,4567.67 17189.62,4212.51 17255.22,4656.7 17207.42,4656.7 17167.58,4365.2 17024.58,4674.36 16883.44,4364.26 "/>
  <polygon class="fil1" points="17768.54,4656.7 17768.54,4335.79 17476.23,4675.56 17476.23,4236.41 17522.82,4236.41 17522.82,4558.58 17815.21,4218.74 17815.21,4656.7 "/>
  <path class="fil2" d="M2362.7 1614.4c713.34,83.38 1110.68,-104.77 1461.22,-270.8 307.17,-145.45 492.2,-264.11 986.85,-197.45 264.16,35.53 493.52,145.86 590.06,191.59 128.85,61.01 466.57,279.24 466.57,279.24l224.06 -759.08 -131.64 -84.98c-198.9,-125.47 -593.71,-343.03 -1001.74,-390.75 -713.47,-83.33 -1101.18,114.11 -1461.27,270.85 -311.62,135.57 -593.51,221.8 -996.68,163.31 -253.41,-36.71 -540.53,-146.44 -722.71,-233.09 -191.86,-91.34 -477.86,-261.09 -488.69,-268.54l-667.8 2262.18c0,0 124.36,96.6 184.03,132.99 328.43,200.08 689.71,364.6 1113.6,402.83 707.51,63.88 1110.68,-104.76 1461.21,-270.8 307.11,-145.39 549.7,-260.37 1045.42,-202.41 119.82,14 227.58,35.12 326.69,64.27l-227.04 765.99c-141.67,-41.83 -292.78,-71.9 -455.04,-90.89 -713.47,-83.39 -1110.74,104.76 -1461.25,270.8 -307.12,145.45 -605.61,229.1 -1004.13,190.73 -228.84,-22.04 -530.52,-141.01 -803.64,-308.57 -196.76,-120.76 -376.22,-289.59 -376.22,-289.59l-229.23 776.75c0,0 65.19,55.83 158.79,119.97 239.73,164.36 519.1,401.83 1120.32,472.14 713.4,83.38 1110.73,-104.77 1461.25,-270.8 307.12,-145.53 567.84,-245.57 1005.2,-189.6 241.58,30.86 457.88,93.55 639.24,164.51 147.52,57.62 430.74,203.75 430.74,203.75l656.11 -2223.09c0,0 -86.43,-66.24 -244.11,-149.31 -259.85,-136.94 -570.68,-226.5 -908.99,-266 -713.41,-83.39 -1110.68,104.74 -1461.21,270.78 -307.1,145.4 -549.75,260.38 -1045.42,202.44 -210.64,-24.64 -367.38,-70.05 -490.92,-123.15l225.97 -762.14c187.81,71.88 390.36,119.02 620.4,145.92z"/>
 </g>
</svg>
